# xmcd
#
# Track frame offsets: 
#        150
#        3230
#        18510
#        36310
#        51932
#        54450
#        74912
#        82680
#        103032
#        121470
#        136395
#        156419
#        158777
#        176282
#        209925
#        211735
#        234642
#        249525
#        255425
#        282620
#        300522
#        307956
#        325383
#
# Disc length: 4568 seconds
#
# Revision: 3
# Processed by: cddbd v1.5.2PL0 Copyright (c) Steve Scherf et al.
# Submitted via: ExactAudioCopyFreeDBPlugin 1.0
#
DISCID=4b11d617
DTITLE=Kanye West - Late Registration
DYEAR=2005
DGENRE=Hip-Hop
TTITLE0=Wake Up Mr. West
TTITLE1=Heard 'Em Say (Feat. Adam Levine of Maroon 5)
TTITLE2=Touch The Sky (Feat. Lupe Fiasco)
TTITLE3=Gold Digger (Feat. Jamie Foxx)
TTITLE4=Skit #1
TTITLE5=Drive Slow (Feat. Paul Wall and GLC)
TTITLE6=My Way Home (Feat. Common)
TTITLE7=Crack Music (Feat. Game)
TTITLE8=Roses
TTITLE9=Bring Me Down (Feat. Brandy)
TTITLE10=Addiction
TTITLE11=Skit #2
TTITLE12=Diamonds From Sierra Leone (Remix) (Feat. Jay-Z)
TTITLE13=We Major (Feat. Nas and Really Doe)
TTITLE14=Skit #3
TTITLE15=Hey Mama
TTITLE16=Celebration
TTITLE17=Skit #4
TTITLE18=Gone (Feat. Consequence and Cam'ron)
TTITLE19=Diamonds From Sierra Leone
TTITLE20=Back To Basics (Feat. Common)
TTITLE21=We Can Make It Better (Feat. Talib Kweli, Q-Tip, Common and Rhy
TTITLE21=mefest)
TTITLE22=Late
EXTD=YEAR: 2005\nThe crow
EXTT0=
EXTT1=
EXTT2=
EXTT3=
EXTT4=
EXTT5=
EXTT6=
EXTT7=
EXTT8=
EXTT9=
EXTT10=
EXTT11=
EXTT12=
EXTT13=
EXTT14=
EXTT15=
EXTT16=
EXTT17=
EXTT18=
EXTT19=
EXTT20=
EXTT21=
EXTT22=
PLAYORDER=
